<?xml version="1.0" encoding="utf-8"?>
<!-- Generator: Adobe Illustrator 23.0.5, SVG Export Plug-In . SVG Version: 6.00 Build 0)  -->
<svg version="1.1" xmlns="http://www.w3.org/2000/svg" xmlns:xlink="http://www.w3.org/1999/xlink" x="0px" y="0px"
	 viewBox="0 0 500 500" style="enable-background:new 0 0 500 500;" xml:space="preserve">
<style type="text/css">
	.st0{fill:#F5F5F5;}
	.st1{fill:#E0E0E0;}
	.st2{fill:#27DEBF;}
	.st3{opacity:0.3;}
	.st4{fill:#FFFFFF;}
	.st5{opacity:0.15;}
	.st6{fill:#37474F;}
	.st7{fill:#455A64;}
	.st8{fill:#263238;}
	.st9{fill:#FAFAFA;}
	.st10{opacity:0.5;fill:#FFFFFF;}
	.st11{opacity:0.4;}
	.st12{opacity:0.2;}
	.st13{opacity:0.1;}
	.st14{fill:#EBEBEB;}
	.st15{opacity:0.7;}
	.st16{opacity:0.8;fill:#FFFFFF;}
	.st17{opacity:0.1;fill:#27DEBF;}
	.st18{opacity:5.000000e-02;}
	.st19{opacity:0.2;fill:#27DEBF;}
	.st20{opacity:0.5;}
	.st21{opacity:0.6;fill:#FFFFFF;}
	.st22{opacity:0.4;fill:#27DEBF;}
	.st23{opacity:0.35;fill:#FFFFFF;}
	.st24{fill:#F0F0F0;}
	.st25{opacity:0.4;fill:#FFFFFF;}
	.st26{opacity:0.25;}
</style>
<g id="Floor">
	<ellipse id="Floor_15_" class="st0" cx="250" cy="345.8" rx="223.4" ry="131.2"/>
</g>
<g id="Shadows_1_">
	<path id="Shadow_28_" class="st1" d="M94,345.9c12.9,7.5,12.9,19.6,0,27s-33.9,7.5-46.8,0c-12.9-7.5-12.9-19.6,0-27
		C60.1,338.4,81,338.4,94,345.9z"/>
	<path id="Shadow_2_" class="st1" d="M122.3,363.1l117.3,67.7c2.4,1.4,6.3,1.4,8.7,0l198.5-114.6c2.4-1.4,2.4-3.6,0-5l-117.3-67.7
		c-2.4-1.4-6.3-1.4-8.7,0L122.3,358.1C119.9,359.4,119.9,361.7,122.3,363.1z"/>
</g>
<g id="Plants">
	<g id="Plants_2_">
		<g id="XMLID_1019_">
			<g id="XMLID_1079_">
				<path id="XMLID_1101_" class="st2" d="M418.3,291.9l-8.2-4.7c0,0-4.9-20.2-2.9-38.4c2.7-25.6,16.5-36.7,25.9-33
					c6.3,2.5,8.3,9.6-2.3,24.9C424.5,249.6,416.9,268.4,418.3,291.9z"/>
			</g>
			<g id="XMLID_1073_" class="st3">
				<path id="XMLID_1078_" d="M418.3,291.9l-8.2-4.7c0,0-4.9-20.2-2.9-38.4c2.7-25.6,16.5-36.7,25.9-33c6.3,2.5,8.3,9.6-2.3,24.9
					C424.5,249.6,416.9,268.4,418.3,291.9z"/>
			</g>
			<g id="XMLID_1029_">
				<path id="XMLID_1072_" class="st4" d="M414.9,282C414.9,281.9,414.9,281.9,414.9,282c0.4-0.1,0.6-0.4,0.5-0.7
					c-4.5-23.6,3.8-50.1,14-61.1c0.2-0.2,0.2-0.6,0-0.8c-0.2-0.2-0.6-0.2-0.8,0c-10.4,11.2-18.8,38.1-14.2,62.1
					C414.4,281.8,414.6,282,414.9,282z"/>
			</g>
		</g>
		<g id="XMLID_918_">
			<g id="XMLID_943_">
				<path id="XMLID_991_" class="st2" d="M439.7,304.2c1.3,0.7,4.7-2.3,5.7-3c1.6-1.2,2.9-2.9,3.8-4.8c1-2.2,1.1-4.5,0.7-6.8
					c-0.2-1.2-0.6-2.4-1-3.5c-0.4-1.1-0.8-2.3-1.2-3.4c-0.4-1.1-0.8-2.3-0.7-3.5c0.2-2.4,2.2-4.2,4.1-5.7c2-1.7,4.1-3.9,4-6.8
					c-0.1-2.2-1.4-4.2-2.8-5.9c-1.5-1.7-3.2-3.1-4.5-4.9c-1-1.3-1.7-2.8-1.7-4.4c0-1,0.4-1.9,0.8-2.8c0.9-1.9,2.2-3.7,2.8-5.7
					c0.6-2,0.4-4.5-1.3-5.9c-1.3-1.1-3.3-1.2-5-1c-1.6,0.2-3.1,1-4.5,1.8c-4.4,2.8-6.7,8.3-11.5,10.5c-1.8,0.8-3.9,1.1-5.8,1.7
					c-1.9,0.6-3.8,1.7-4.6,3.5c-1.6,3.6,1.9,7.8,0.9,11.6c-0.9,3.4-4.1,4.8-5.8,7.9c-0.7,1.3-0.8,2.9-0.6,4.4
					c0.3,2.6,0.8,4.4,2.2,7.3c1.1,2.3,4.4,6.7,4.4,6.7S439.5,304.1,439.7,304.2z"/>
			</g>
			<g id="XMLID_926_" class="st5">
				<path id="XMLID_941_" d="M439.7,304.2c1.3,0.7,4.7-2.3,5.7-3c1.6-1.2,2.9-2.9,3.8-4.8c1-2.2,1.1-4.5,0.7-6.8
					c-0.2-1.2-0.6-2.4-1-3.5c-0.4-1.1-0.8-2.3-1.2-3.4c-0.4-1.1-0.8-2.3-0.7-3.5c0.2-2.4,2.2-4.2,4.1-5.7c2-1.7,4.1-3.9,4-6.8
					c-0.1-2.2-1.4-4.2-2.8-5.9c-1.5-1.7-3.2-3.1-4.5-4.9c-1-1.3-1.7-2.8-1.7-4.4c0-1,0.4-1.9,0.8-2.8c0.9-1.9,2.2-3.7,2.8-5.7
					c0.6-2,0.4-4.5-1.3-5.9c-1.3-1.1-3.3-1.2-5-1c-1.6,0.2-3.1,1-4.5,1.8c-4.4,2.8-6.7,8.3-11.5,10.5c-1.8,0.8-3.9,1.1-5.8,1.7
					c-1.9,0.6-3.8,1.7-4.6,3.5c-1.6,3.6,1.9,7.8,0.9,11.6c-0.9,3.4-4.1,4.8-5.8,7.9c-0.7,1.3-0.8,2.9-0.6,4.4
					c0.3,2.6,0.8,4.4,2.2,7.3c1.1,2.3,4.4,6.7,4.4,6.7S439.5,304.1,439.7,304.2z"/>
			</g>
			<g id="XMLID_924_">
				<path id="XMLID_925_" class="st4" d="M427.2,297.7C427.2,297.7,427.2,297.7,427.2,297.7c0.3,0,0.6-0.3,0.5-0.6
					c-2.1-22.4,7.3-47.8,14.6-55.4c0.2-0.2,0.2-0.6,0-0.8c-0.2-0.2-0.6-0.2-0.8,0c-7.5,7.7-17,33.5-14.9,56.3
					C426.6,297.5,426.9,297.7,427.2,297.7z"/>
			</g>
			<g id="XMLID_922_">
				<path id="XMLID_923_" class="st4" d="M429.4,270.1c0.1,0,0.1,0,0.2,0c7.1-2.6,16.1-3.4,16.2-3.5c0.3,0,0.5-0.3,0.5-0.6
					c0-0.3-0.3-0.5-0.6-0.5c-0.1,0-9.2,0.9-16.5,3.5c-0.3,0.1-0.4,0.4-0.3,0.7C428.9,269.9,429.2,270.1,429.4,270.1z"/>
			</g>
		</g>
	</g>
</g>
<g id="Device">
	<g id="Laptop_1_">
		<path id="XMLID_611_" class="st6" d="M126.3,350.6c0,3,2.2,6.6,4.9,8.2L239,421c2.7,1.6,7.2,1.6,9.9,0l189.6-109.5
			c2.7-1.6,4.9-5.3,4.9-8.2c0-3-2.2-6.6-4.9-8.2l-107.7-62.2c-2.7-1.6-7.2-1.6-9.9,0L131.3,342.4C128.6,344,126.3,347.7,126.3,350.6
			z"/>
		<path id="XMLID_5480_" class="st7" d="M131.3,348.1L239,410.3c2.7,1.6,7.2,1.6,9.9,0l189.6-109.5c2.7-1.6,2.7-4.1,0-5.7
			l-107.7-62.2c-2.7-1.6-7.2-1.6-9.9,0L131.3,342.4C128.6,344,128.6,346.5,131.3,348.1z"/>
		<path id="XMLID_5466_" class="st8" d="M243.9,411.5v10.7c-1.8,0-3.6-0.4-4.9-1.2l-107.7-62.2c-2.7-1.6-4.9-5.3-4.9-8.2
			c0-2.8,2-6.2,4.4-7.9c-2.2,1.6-2,3.9,0.5,5.4L239,410.3C240.3,411.1,242.1,411.5,243.9,411.5z"/>
		<path id="XMLID_609_" class="st6" d="M121.7,342.6c-2.6-1.5-2.4-4-2.4-7.1l0-148.7c0-3.2,2.2-7,4.9-8.6L313.9,68.7
			c2.7-1.6,7-1.7,9.6-0.2c2.6,1.5,2.4,4,2.4,7.1v148.7c0,3.2-2.2,7-4.9,8.6L131.3,342.4C128.6,344,124.3,344.1,121.7,342.6z"/>
		<path id="XMLID_608_" class="st7" d="M325.9,75.6c0-3.1-2.2-4.4-4.9-2.9L131.3,182.2c-1.4,0.8-2.6,2.1-3.5,3.7l-7.1-4.1h0
			c0.9-1.6,2.1-2.9,3.5-3.7L313.9,68.7c2.7-1.6,7-1.7,9.6-0.2C326,70,325.9,72.5,325.9,75.6z"/>
		<path id="XMLID_606_" class="st8" d="M130.7,342.7c-2.7,1.3-6.6,1.3-9-0.1c-2.6-1.5-2.4-4-2.4-7.1V186.7c0-1.6,0.5-3.3,1.5-4.9
			l7.1,4.1v0c-0.9,1.6-1.5,3.3-1.5,4.9v148.8C126.3,342.5,128.3,343.8,130.7,342.7z"/>
		<path id="XMLID_605_" class="st9" d="M134,187.9L316.8,82.4c1.6-0.9,3-0.2,3,1.7V214c0,1.9-1.3,4.2-3,5.1L134,324.6
			c-1.6,0.9-3,0.2-3-1.7V193.1C131,191.2,132.3,188.9,134,187.9z"/>
		<path id="XMLID_604_" class="st8" d="M145,342.7l176-101.6c1.4-0.8,3.6-0.8,4.9,0l2.9,1.6c1.4,0.8,1.4,2.1,0,2.9l-176,101.6
			c-1.4,0.8-3.6,0.8-4.9,0l-2.9-1.6C143.6,344.8,143.6,343.5,145,342.7z"/>
		<g id="XMLID_269_">
			<path id="XMLID_603_" class="st8" d="M158.8,350.9l176-101.6c1.4-0.8,3.4-0.9,4.5-0.2l45.8,26.5c1.1,0.7,0.9,1.8-0.4,2.6
				L208.9,379.6c-1.4,0.8-3.4,0.9-4.5,0.3l-46-26.3C157.2,352.9,157.4,351.7,158.8,350.9z"/>
			<path id="XMLID_270_" class="st7" d="M311.3,292l5.5-3.2c0.2-0.1,0.3-0.3,0-0.5l-5.3-3c-0.2-0.1-0.6-0.1-0.8,0l-5.5,3.2
				c-0.2,0.1-0.3,0.3,0,0.5l5.3,3C310.7,292.1,311.1,292.1,311.3,292z M303.3,281l-5.5,3.2c-0.2,0.1-0.3,0.3,0,0.5l5.3,3
				c0.2,0.1,0.6,0.1,0.8,0l5.5-3.2c0.2-0.1,0.3-0.3,0-0.5l-5.3-3C303.9,280.8,303.5,280.8,303.3,281z M285.5,291.2l-9.3,5.4
				c-0.2,0.1-0.3,0.3,0,0.5l5.3,3c0.2,0.1,0.6,0.1,0.8,0l9.3-5.4c0.2-0.1,0.3-0.3,0-0.5l-5.3-3C286,291.1,285.7,291.1,285.5,291.2z
				 M295.2,285.6l-5.5,3.2c-0.2,0.1-0.3,0.3,0,0.5l5.3,3c0.2,0.1,0.6,0.1,0.8,0l5.5-3.2c0.2-0.1,0.3-0.3,0-0.5l-5.3-3
				C295.8,285.5,295.4,285.5,295.2,285.6z M273.6,298.1l-5.5,3.2c-0.2,0.1-0.3,0.3,0,0.5l5.3,3c0.2,0.1,0.6,0.1,0.8,0l5.5-3.2
				c0.2-0.1,0.3-0.3,0-0.5l-5.3-3C274.2,297.9,273.8,298,273.6,298.1z M265.5,302.7l-5.5,3.2c-0.2,0.1-0.3,0.3,0,0.5l5.3,3
				c0.2,0.1,0.6,0.1,0.8,0l5.5-3.2c0.2-0.1,0.3-0.3,0-0.5l-5.3-3C266.1,302.6,265.8,302.6,265.5,302.7z M286.2,315.2l5.5-3.2
				c0.2-0.1,0.3-0.3,0-0.5l-5.3-3c-0.2-0.1-0.6-0.1-0.8,0l-5.5,3.2c-0.2,0.1-0.3,0.3,0,0.5l5.3,3C285.6,315.3,286,315.3,286.2,315.2
				z M278.1,319.8l5.5-3.2c0.2-0.1,0.3-0.3,0-0.5l-5.3-3c-0.2-0.1-0.6-0.1-0.8,0l-5.5,3.2c-0.2,0.1-0.3,0.3,0,0.5l5.3,3
				C277.5,320,277.9,319.9,278.1,319.8z M270.1,324.5l5.5-3.2c0.2-0.1,0.3-0.3,0-0.5l-5.3-3c-0.2-0.1-0.6-0.1-0.8,0l-5.5,3.2
				c-0.2,0.1-0.3,0.3,0,0.5l5.3,3C269.5,324.6,269.9,324.6,270.1,324.5z M262,329.1l5.5-3.2c0.2-0.1,0.3-0.3,0-0.5l-5.3-3
				c-0.2-0.1-0.6-0.1-0.8,0l-5.5,3.2c-0.2,0.1-0.3,0.3,0,0.5l5.3,3C261.4,329.3,261.8,329.2,262,329.1z M303.3,296.6l5.5-3.2
				c0.2-0.1,0.3-0.3,0-0.5l-5.3-3c-0.2-0.1-0.6-0.1-0.8,0l-5.5,3.2c-0.2,0.1-0.3,0.3,0,0.5l5.3,3C302.7,296.8,303,296.8,303.3,296.6
				z M294.2,310.5l12.3-7.1c0.2-0.1,0.3-0.3,0-0.5l-12.8-7.4c-0.2-0.1-0.6-0.1-0.8,0l-6.4,3.7c-0.2,0.1-0.3,0.3,0,0.5l6.8,3.9
				c0.2,0.1,0.2,0.3,0,0.5l-5.1,2.9c-0.2,0.1-0.3,0.3,0,0.5l5.3,3C293.7,310.7,294,310.6,294.2,310.5z M257.5,307.4l-5.5,3.2
				c-0.2,0.1-0.3,0.3,0,0.5l5.3,3c0.2,0.1,0.6,0.1,0.8,0l5.5-3.2c0.2-0.1,0.3-0.3,0-0.5l-5.3-3C258.1,307.2,257.7,307.3,257.5,307.4
				z M249.4,312l-5.5,3.2c-0.2,0.1-0.3,0.3,0,0.5l5.3,3c0.2,0.1,0.6,0.1,0.8,0l5.5-3.2c0.2-0.1,0.3-0.3,0-0.5l-5.3-3
				C250,311.9,249.7,311.9,249.4,312z M204.8,361.7c0.2,0.1,0.6,0.1,0.8,0l5.5-3.2c0.2-0.1,0.3-0.3,0-0.5l-5.3-3
				c-0.2-0.1-0.6-0.1-0.8,0l-5.5,3.2c-0.2,0.1-0.3,0.3,0,0.5L204.8,361.7z M185,349.2l-5.5,3.2c-0.2,0.1-0.3,0.3,0,0.5l5.3,3
				c0.2,0.1,0.6,0.1,0.8,0l5.5-3.2c0.2-0.1,0.3-0.3,0-0.5l-5.3-3C185.6,349.1,185.2,349.1,185,349.2z M195.2,358.6
				c0.2,0.1,0.6,0.1,0.8,0l5.5-3.2c0.2-0.1,0.3-0.3,0-0.5l-5.3-3c-0.2-0.1-0.6-0.1-0.8,0l-5.5,3.2c-0.2,0.1-0.3,0.3,0,0.5
				L195.2,358.6z M217.4,363.6l5.5-3.2c0.2-0.1,0.3-0.3,0-0.5l-5.3-3c-0.2-0.1-0.6-0.1-0.8,0l-5.5,3.2c-0.2,0.1-0.3,0.3,0,0.5l5.3,3
				C216.8,363.7,217.2,363.7,217.4,363.6z M208.6,368.2c0.2,0.1,0.6,0.1,0.8,0l5.5-3.2c0.2-0.1,0.3-0.3,0-0.5l-5.3-3
				c-0.2-0.1-0.6-0.1-0.8,0l-5.5,3.2c-0.2,0.1-0.3,0.3,0,0.5L208.6,368.2z M193,344.6l-5.5,3.2c-0.2,0.1-0.3,0.3,0,0.5l5.3,3
				c0.2,0.1,0.6,0.1,0.8,0l5.5-3.2c0.2-0.1,0.3-0.3,0-0.5l-5.3-3C193.6,344.4,193.3,344.5,193,344.6z M233.3,321.3l-5.5,3.2
				c-0.2,0.1-0.3,0.3,0,0.5l5.3,3c0.2,0.1,0.6,0.1,0.8,0l5.5-3.2c0.2-0.1,0.3-0.3,0-0.5l-5.3-3C233.9,321.2,233.5,321.2,233.3,321.3
				z M201.1,339.9l-5.5,3.2c-0.2,0.1-0.3,0.3,0,0.5l5.3,3c0.2,0.1,0.6,0.1,0.8,0l5.5-3.2c0.2-0.1,0.3-0.3,0-0.5l-5.3-3
				C201.7,339.8,201.3,339.8,201.1,339.9z M241.4,316.7l-5.5,3.2c-0.2,0.1-0.3,0.3,0,0.5l5.3,3c0.2,0.1,0.6,0.1,0.8,0l5.5-3.2
				c0.2-0.1,0.3-0.3,0-0.5l-5.3-3C242,316.5,241.6,316.6,241.4,316.7z M225.3,326l-5.5,3.2c-0.2,0.1-0.3,0.3,0,0.5l5.3,3
				c0.2,0.1,0.6,0.1,0.8,0l5.5-3.2c0.2-0.1,0.3-0.3,0-0.5l-5.3-3C225.8,325.8,225.5,325.9,225.3,326z M217.2,330.6l-5.5,3.2
				c-0.2,0.1-0.3,0.3,0,0.5l5.3,3c0.2,0.1,0.6,0.1,0.8,0l5.5-3.2c0.2-0.1,0.3-0.3,0-0.5l-5.3-3C217.8,330.5,217.4,330.5,217.2,330.6
				z M209.1,335.3l-5.5,3.2c-0.2,0.1-0.3,0.3,0,0.5l5.3,3c0.2,0.1,0.6,0.1,0.8,0l5.5-3.2c0.2-0.1,0.3-0.3,0-0.5l-5.3-3
				C209.7,335.1,209.4,335.2,209.1,335.3z M245.9,338.4l5.5-3.2c0.2-0.1,0.3-0.3,0-0.5l-5.3-3c-0.2-0.1-0.6-0.1-0.8,0l-5.5,3.2
				c-0.2,0.1-0.3,0.3,0,0.5l5.3,3C245.3,338.6,245.7,338.5,245.9,338.4z M321.1,270.7l-5.5,3.2c-0.2,0.1-0.3,0.3,0,0.5l5.3,3
				c0.2,0.1,0.6,0.1,0.8,0l5.5-3.2c0.2-0.1,0.3-0.3,0-0.5l-5.3-3C321.7,270.5,321.3,270.5,321.1,270.7z M311.3,276.3l-5.5,3.2
				c-0.2,0.1-0.3,0.3,0,0.5l5.3,3c0.2,0.1,0.6,0.1,0.8,0l5.5-3.2c0.2-0.1,0.3-0.3,0-0.5l-5.3-3C311.9,276.2,311.5,276.2,311.3,276.3
				z M329.1,266l-5.5,3.2c-0.2,0.1-0.3,0.3,0,0.5l5.3,3c0.2,0.1,0.6,0.1,0.8,0l5.5-3.2c0.2-0.1,0.3-0.3,0-0.5l-5.3-3
				C329.7,265.9,329.4,265.9,329.1,266z M284.6,307.4l5.5-3.2c0.2-0.1,0.3-0.3,0-0.5l-5.3-3c-0.2-0.1-0.6-0.1-0.8,0l-5.5,3.2
				c-0.2,0.1-0.3,0.3,0,0.5l5.3,3C284,307.5,284.4,307.5,284.6,307.4z M338,261.3c-0.2-0.1-0.6-0.1-0.8,0l-5.5,3.2
				c-0.2,0.1-0.3,0.3,0,0.5l5.3,3c0.2,0.1,0.6,0.1,0.8,0l5.5-3.2c0.2-0.1,0.3-0.3,0-0.5L338,261.3z M254,333.8l5.5-3.2
				c0.2-0.1,0.3-0.3,0-0.5l-5.3-3c-0.2-0.1-0.6-0.1-0.8,0l-5.5,3.2c-0.2,0.1-0.3,0.3,0,0.5l5.3,3C253.4,333.9,253.7,333.9,254,333.8
				z M352.8,276.7l5.5-3.2c0.2-0.1,0.3-0.3,0-0.5l-5.3-3c-0.2-0.1-0.6-0.1-0.8,0l-5.5,3.2c-0.2,0.1-0.3,0.3,0,0.5l5.3,3
				C352.2,276.9,352.5,276.9,352.8,276.7z M337.2,277l5.5-3.2c0.2-0.1,0.3-0.3,0-0.5l-5.3-3c-0.2-0.1-0.6-0.1-0.8,0l-5.5,3.2
				c-0.2,0.1-0.3,0.3,0,0.5l5.3,3C336.6,277.2,336.9,277.2,337.2,277z M345.5,265.7c-0.2-0.1-0.6-0.1-0.8,0l-5.5,3.2
				c-0.2,0.1-0.3,0.3,0,0.5l5.3,3c0.2,0.1,0.6,0.1,0.8,0l5.5-3.2c0.2-0.1,0.3-0.3,0-0.5L345.5,265.7z M347.2,264.7l12.8,7.4
				c0.2,0.1,0.6,0.1,0.8,0l5.5-3.2c0.2-0.1,0.3-0.3,0-0.5l-12.8-7.4c-0.2-0.1-0.6-0.1-0.8,0l-5.5,3.2
				C347,264.4,347,264.6,347.2,264.7z M328.6,275l-5.5,3.2c-0.2,0.1-0.3,0.3,0,0.5l5.3,3c0.2,0.1,0.6,0.1,0.8,0l5.5-3.2
				c0.2-0.1,0.3-0.3,0-0.5l-5.3-3C329.2,274.9,328.8,274.9,328.6,275z M268,310l-5.5,3.2c-0.2,0.1-0.3,0.3,0,0.5l5.3,3
				c0.2,0.1,0.6,0.1,0.8,0l5.5-3.2c0.2-0.1,0.3-0.3,0-0.5l-5.3-3C268.6,309.9,268.2,309.9,268,310z M343.9,281.4
				c0.2,0.1,0.6,0.1,0.8,0l5.5-3.2c0.2-0.1,0.3-0.3,0-0.5l-5.3-3c-0.2-0.1-0.6-0.1-0.8,0l-5.5,3.2c-0.2,0.1-0.3,0.3,0,0.5
				L343.9,281.4z M276,305.4l-5.5,3.2c-0.2,0.1-0.3,0.3,0,0.5l5.3,3c0.2,0.1,0.6,0.1,0.8,0l5.5-3.2c0.2-0.1,0.3-0.3,0-0.5l-5.3-3
				C276.6,305.2,276.3,305.2,276,305.4z M212.9,357c0.2,0.1,0.6,0.1,0.8,0l5.5-3.2c0.2-0.1,0.3-0.3,0-0.5l-5.3-3
				c-0.2-0.1-0.6-0.1-0.8,0l-5.5,3.2c-0.2,0.1-0.3,0.3,0,0.5L212.9,357z M203.5,347.2l-5.5,3.2c-0.2,0.1-0.3,0.3,0,0.5l5.3,3
				c0.2,0.1,0.6,0.1,0.8,0l5.5-3.2c0.2-0.1,0.3-0.3,0-0.5l-5.3-3C204.1,347.1,203.8,347.1,203.5,347.2z M221.8,352.4l5.5-3.2
				c0.2-0.1,0.3-0.3,0-0.5l-5.3-3c-0.2-0.1-0.6-0.1-0.8,0l-5.5,3.2c-0.2,0.1-0.3,0.3,0,0.5l5.3,3
				C221.2,352.5,221.5,352.5,221.8,352.4z M229.8,347.7l5.5-3.2c0.2-0.1,0.3-0.3,0-0.5l-5.3-3c-0.2-0.1-0.6-0.1-0.8,0l-5.5,3.2
				c-0.2,0.1-0.3,0.3,0,0.5l5.3,3C229.2,347.9,229.6,347.8,229.8,347.7z M237.9,343.1l5.5-3.2c0.2-0.1,0.3-0.3,0-0.5l-5.3-3
				c-0.2-0.1-0.6-0.1-0.8,0l-5.5,3.2c-0.2,0.1-0.3,0.3,0,0.5l5.3,3C237.3,343.2,237.6,343.2,237.9,343.1z M211.6,342.6l-5.5,3.2
				c-0.2,0.1-0.3,0.3,0,0.5l5.3,3c0.2,0.1,0.6,0.1,0.8,0l5.5-3.2c0.2-0.1,0.3-0.3,0-0.5l-5.3-3C212.2,342.4,211.8,342.4,211.6,342.6
				z M219.6,337.9l-5.5,3.2c-0.2,0.1-0.3,0.3,0,0.5l5.3,3c0.2,0.1,0.6,0.1,0.8,0l5.5-3.2c0.2-0.1,0.3-0.3,0-0.5l-5.3-3
				C220.2,337.8,219.9,337.8,219.6,337.9z M251.9,319.3l-5.5,3.2c-0.2,0.1-0.3,0.3,0,0.5l5.3,3c0.2,0.1,0.6,0.1,0.8,0l5.5-3.2
				c0.2-0.1,0.3-0.3,0-0.5l-5.3-3C252.5,319.2,252.1,319.2,251.9,319.3z M243.8,324l-5.5,3.2c-0.2,0.1-0.3,0.3,0,0.5l5.3,3
				c0.2,0.1,0.6,0.1,0.8,0l5.5-3.2c0.2-0.1,0.3-0.3,0-0.5l-5.3-3C244.4,323.8,244,323.8,243.8,324z M259.9,314.7l-5.5,3.2
				c-0.2,0.1-0.3,0.3,0,0.5l5.3,3c0.2,0.1,0.6,0.1,0.8,0l5.5-3.2c0.2-0.1,0.3-0.3,0-0.5l-5.3-3C260.5,314.5,260.2,314.5,259.9,314.7
				z M227.7,333.3l-5.5,3.2c-0.2,0.1-0.3,0.3,0,0.5l5.3,3c0.2,0.1,0.6,0.1,0.8,0l5.5-3.2c0.2-0.1,0.3-0.3,0-0.5l-5.3-3
				C228.3,333.1,227.9,333.1,227.7,333.3z M235.8,328.6l-5.5,3.2c-0.2,0.1-0.3,0.3,0,0.5l5.3,3c0.2,0.1,0.6,0.1,0.8,0l5.5-3.2
				c0.2-0.1,0.3-0.3,0-0.5l-5.3-3C236.3,328.5,236,328.5,235.8,328.6z M225.5,358.9l5.5-3.2c0.2-0.1,0.3-0.3,0-0.5l-5.3-3
				c-0.2-0.1-0.6-0.1-0.8,0l-5.5,3.2c-0.2,0.1-0.3,0.3,0,0.5l5.3,3C224.9,359.1,225.2,359,225.5,358.9z M183,356.9l-5.3-3
				c-0.2-0.1-0.6-0.1-0.8,0l-5.5,3.2c-0.2,0.1-0.3,0.3,0,0.5l5.3,3c0.2,0.1,0.6,0.1,0.8,0l5.5-3.2C183.2,357.2,183.2,357,183,356.9z
				 M193.5,359.5l-5.3-3c-0.2-0.1-0.6-0.1-0.8,0l-8.5,4.9c-0.2,0.1-0.3,0.3,0,0.5l5.3,3c0.2,0.1,0.6,0.1,0.8,0l8.5-4.9
				C193.7,359.9,193.7,359.7,193.5,359.5z M175.1,350.9l-5.3-3c-0.2-0.1-0.6-0.1-0.8,0l-6.8,3.9c-0.2,0.1-0.3,0.3,0,0.5l5.3,3
				c0.2,0.1,0.6,0.1,0.8,0l6.8-3.9C175.3,351.2,175.3,351,175.1,350.9z M180.3,347.9c0.2,0.1,0.6,0.1,0.8,0l5.5-3.2
				c0.2-0.1,0.3-0.3,0-0.5l-5.3-3c-0.2-0.1-0.6-0.1-0.8,0l-5.5,3.2c-0.2,0.1-0.3,0.3,0,0.5L180.3,347.9z M203.2,362.7l-5.3-3
				c-0.2-0.1-0.6-0.1-0.8,0l-10.6,6.1c-0.2,0.1-0.3,0.3,0,0.5l5.3,3c0.2,0.1,0.6,0.1,0.8,0l10.6-6.1
				C203.3,363,203.4,362.8,203.2,362.7z M206.9,369.2l-5.3-3c-0.2-0.1-0.6-0.1-0.8,0l-6.8,3.9c-0.2,0.1-0.3,0.3,0,0.5l5.3,3
				c0.2,0.1,0.6,0.1,0.8,0l6.8-3.9C207.1,369.5,207.1,369.3,206.9,369.2z M240.2,313.3c0.2,0.1,0.6,0.1,0.8,0l5.5-3.2
				c0.2-0.1,0.3-0.3,0-0.5l-5.3-3c-0.2-0.1-0.6-0.1-0.8,0l-5.5,3.2c-0.2,0.1-0.3,0.3,0,0.5L240.2,313.3z M224.1,322.6
				c0.2,0.1,0.6,0.1,0.8,0l5.5-3.2c0.2-0.1,0.3-0.3,0-0.5l-5.3-3c-0.2-0.1-0.6-0.1-0.8,0l-5.5,3.2c-0.2,0.1-0.3,0.3,0,0.5
				L224.1,322.6z M188.4,343.2c0.2,0.1,0.6,0.1,0.8,0l5.5-3.2c0.2-0.1,0.3-0.3,0-0.5l-5.3-3c-0.2-0.1-0.6-0.1-0.8,0l-5.5,3.2
				c-0.2,0.1-0.3,0.3,0,0.5L188.4,343.2z M232.2,318c0.2,0.1,0.6,0.1,0.8,0l5.5-3.2c0.2-0.1,0.3-0.3,0-0.5l-5.3-3
				c-0.2-0.1-0.6-0.1-0.8,0l-5.5,3.2c-0.2,0.1-0.3,0.3,0,0.5L232.2,318z M216.1,327.3c0.2,0.1,0.6,0.1,0.8,0l5.5-3.2
				c0.2-0.1,0.3-0.3,0-0.5l-5.3-3c-0.2-0.1-0.6-0.1-0.8,0l-5.5,3.2c-0.2,0.1-0.3,0.3,0,0.5L216.1,327.3z M210.8,369.5
				c-0.2-0.1-0.6-0.1-0.8,0l-8.5,4.9c-0.2,0.1-0.3,0.3,0,0.5l5.3,3c0.2,0.1,0.6,0.1,0.8,0l8.5-4.9c0.2-0.1,0.3-0.3,0-0.5
				L210.8,369.5z M204.5,333.9c0.2,0.1,0.6,0.1,0.8,0l5.5-3.2c0.2-0.1,0.3-0.3,0-0.5l-5.3-3c-0.2-0.1-0.6-0.1-0.8,0l-5.5,3.2
				c-0.2,0.1-0.3,0.3,0,0.5L204.5,333.9z M196.4,338.6c0.2,0.1,0.6,0.1,0.8,0l5.5-3.2c0.2-0.1,0.3-0.3,0-0.5l-5.3-3
				c-0.2-0.1-0.6-0.1-0.8,0l-5.5,3.2c-0.2,0.1-0.3,0.3,0,0.5L196.4,338.6z M360,283.4c-0.2-0.1-0.6-0.1-0.8,0l-13.6,7.8
				c-0.2,0.1-0.3,0.3,0,0.5l5.3,3c0.2,0.1,0.6,0.1,0.8,0l13.6-7.8c0.2-0.1,0.3-0.3,0-0.5L360,283.4z M342.2,293.7
				c-0.2-0.1-0.6-0.1-0.8,0l-5.5,3.2c-0.2,0.1-0.3,0.3,0,0.5l5.3,3c0.2,0.1,0.6,0.1,0.8,0l5.5-3.2c0.2-0.1,0.3-0.3,0-0.5
				L342.2,293.7z M233.5,354.3l5.5-3.2c0.2-0.1,0.3-0.3,0-0.5l-5.3-3c-0.2-0.1-0.6-0.1-0.8,0l-5.5,3.2c-0.2,0.1-0.3,0.3,0,0.5l5.3,3
				C232.9,354.4,233.3,354.4,233.5,354.3z M326.1,303c-0.2-0.1-0.6-0.1-0.8,0l-5.5,3.2c-0.2,0.1-0.3,0.3,0,0.5l5.3,3
				c0.2,0.1,0.6,0.1,0.8,0l5.5-3.2c0.2-0.1,0.3-0.3,0-0.5L326.1,303z M368.1,278.7c-0.2-0.1-0.6-0.1-0.8,0l-5.5,3.2
				c-0.2,0.1-0.3,0.3,0,0.5l5.3,3c0.2,0.1,0.6,0.1,0.8,0l5.5-3.2c0.2-0.1,0.3-0.3,0-0.5L368.1,278.7z M381.4,277.1l-12.8-7.4
				c-0.2-0.1-0.6-0.1-0.8,0l-5.5,3.2c-0.2,0.1-0.3,0.3,0,0.5l12.8,7.4c0.2,0.1,0.6,0.1,0.8,0l5.5-3.2
				C381.6,277.5,381.6,277.3,381.4,277.1z M296,320.4c-0.2-0.1-0.6-0.1-0.8,0l-6.8,3.9c-0.2,0.1-0.3,0.3,0,0.5l5.3,3
				c0.2,0.1,0.6,0.1,0.8,0l6.8-3.9c0.2-0.1,0.3-0.3,0-0.5L296,320.4z M316.4,308.6c-0.2-0.1-0.6-0.1-0.8,0l-8.5,4.9
				c-0.2,0.1-0.3,0.3,0,0.5l5.3,3c0.2,0.1,0.6,0.1,0.8,0l8.5-4.9c0.2-0.1,0.3-0.3,0-0.5L316.4,308.6z M277.4,331.1
				c-0.2-0.1-0.6-0.1-0.8,0l-45.4,26.2c-0.2,0.1-0.3,0.3,0,0.5l5.3,3c0.2,0.1,0.6,0.1,0.8,0l45.4-26.2c0.2-0.1,0.3-0.3,0-0.5
				L277.4,331.1z M229.5,358.8c-0.2-0.1-0.6-0.1-0.8,0l-6.8,3.9c-0.2,0.1-0.3,0.3,0,0.5l5.3,3c0.2,0.1,0.6,0.1,0.8,0l6.8-3.9
				c0.2-0.1,0.3-0.3,0-0.5L229.5,358.8z M286.7,325.7c-0.2-0.1-0.6-0.1-0.8,0l-6.8,3.9c-0.2,0.1-0.3,0.3,0,0.5l5.3,3
				c0.2,0.1,0.6,0.1,0.8,0l6.8-3.9c0.2-0.1,0.3-0.3,0-0.5L286.7,325.7z M220.1,364.2c-0.2-0.1-0.6-0.1-0.8,0l-6.8,3.9
				c-0.2,0.1-0.3,0.3,0,0.5l5.3,3c0.2,0.1,0.6,0.1,0.8,0l6.8-3.9c0.2-0.1,0.3-0.3,0-0.5L220.1,364.2z M305.4,315
				c-0.2-0.1-0.6-0.1-0.8,0l-6.8,3.9c-0.2,0.1-0.3,0.3,0,0.5l5.3,3c0.2,0.1,0.6,0.1,0.8,0l6.8-3.9c0.2-0.1,0.3-0.3,0-0.5L305.4,315z
				 M334.2,298.3c-0.2-0.1-0.6-0.1-0.8,0l-5.5,3.2c-0.2,0.1-0.3,0.3,0,0.5l5.3,3c0.2,0.1,0.6,0.1,0.8,0l5.5-3.2
				c0.2-0.1,0.3-0.3,0-0.5L334.2,298.3z M352.2,285.7l5.5-3.2c0.2-0.1,0.3-0.3,0-0.5l-5.3-3c-0.2-0.1-0.6-0.1-0.8,0l-5.5,3.2
				c-0.2,0.1-0.3,0.3,0,0.5l5.3,3C351.6,285.9,352,285.9,352.2,285.7z M319.4,287.3l5.5-3.2c0.2-0.1,0.3-0.3,0-0.5l-5.3-3
				c-0.2-0.1-0.6-0.1-0.8,0l-5.5,3.2c-0.2,0.1-0.3,0.3,0,0.5l5.3,3C318.8,287.5,319.1,287.4,319.4,287.3z M298,317.1l16.1-9.3
				c0.2-0.1,0.3-0.3,0-0.5l-5.3-3c-0.2-0.1-0.6-0.1-0.8,0l-16.1,9.3c-0.2,0.1-0.3,0.3,0,0.5l5.3,3
				C297.4,317.2,297.7,317.2,298,317.1z M343.4,290.4c0.2,0.1,0.6,0.1,0.8,0l5.5-3.2c0.2-0.1,0.3-0.3,0-0.5l-5.3-3
				c-0.2-0.1-0.6-0.1-0.8,0l-5.5,3.2c-0.2,0.1-0.3,0.3,0,0.5L343.4,290.4z M336.6,286l5.5-3.2c0.2-0.1,0.3-0.3,0-0.5l-5.3-3
				c-0.2-0.1-0.6-0.1-0.8,0l-5.5,3.2c-0.2,0.1-0.3,0.3,0,0.5l5.3,3C336,286.2,336.4,286.2,336.6,286z M289.9,321.7l5.5-3.2
				c0.2-0.1,0.3-0.3,0-0.5l-5.3-3c-0.2-0.1-0.6-0.1-0.8,0l-5.5,3.2c-0.2,0.1-0.3,0.3,0,0.5l5.3,3
				C289.3,321.9,289.7,321.8,289.9,321.7z M325.6,300.7c0.2,0.1,0.6,0.1,0.8,0l5.5-3.2c0.2-0.1,0.3-0.3,0-0.5l-5.3-3
				c-0.2-0.1-0.6-0.1-0.8,0l-5.5,3.2c-0.2,0.1-0.3,0.3,0,0.5L325.6,300.7z M249.6,345l5.5-3.2c0.2-0.1,0.3-0.3,0-0.5l-5.3-3
				c-0.2-0.1-0.6-0.1-0.8,0l-5.5,3.2c-0.2,0.1-0.3,0.3,0,0.5l5.3,3C249,345.1,249.4,345.1,249.6,345z M257.7,340.3l5.5-3.2
				c0.2-0.1,0.3-0.3,0-0.5l-5.3-3c-0.2-0.1-0.6-0.1-0.8,0l-5.5,3.2c-0.2,0.1-0.3,0.3,0,0.5l5.3,3
				C257.1,340.5,257.5,340.4,257.7,340.3z M241.6,349.6l5.5-3.2c0.2-0.1,0.3-0.3,0-0.5l-5.3-3c-0.2-0.1-0.6-0.1-0.8,0l-5.5,3.2
				c-0.2,0.1-0.3,0.3,0,0.5l5.3,3C241,349.8,241.3,349.7,241.6,349.6z M273.8,331l5.5-3.2c0.2-0.1,0.3-0.3,0-0.5l-5.3-3
				c-0.2-0.1-0.6-0.1-0.8,0l-5.5,3.2c-0.2,0.1-0.3,0.3,0,0.5l5.3,3C273.2,331.2,273.6,331.1,273.8,331z M265.7,335.7l5.5-3.2
				c0.2-0.1,0.3-0.3,0-0.5l-5.3-3c-0.2-0.1-0.6-0.1-0.8,0l-5.5,3.2c-0.2,0.1-0.3,0.3,0,0.5l5.3,3
				C265.2,335.8,265.5,335.8,265.7,335.7z M281.9,326.4l5.5-3.2c0.2-0.1,0.3-0.3,0-0.5l-5.3-3c-0.2-0.1-0.6-0.1-0.8,0l-5.5,3.2
				c-0.2,0.1-0.3,0.3,0,0.5l5.3,3C281.3,326.5,281.6,326.5,281.9,326.4z M325.8,261.7c0.2,0.1,0.6,0.1,0.8,0l5.5-3.2
				c0.2-0.1,0.3-0.3,0-0.5l-1.4-0.8c-0.2-0.1-0.6-0.1-0.8,0l-5.5,3.2c-0.2,0.1-0.3,0.3,0,0.5L325.8,261.7z M285.8,287
				c0.2,0.1,0.6,0.1,0.8,0l5.5-3.2c0.2-0.1,0.3-0.3,0-0.5l-5.3-3c-0.2-0.1-0.6-0.1-0.8,0l-5.5,3.2c-0.2,0.1-0.3,0.3,0,0.5L285.8,287
				z M301.9,277.7c0.2,0.1,0.6,0.1,0.8,0l5.5-3.2c0.2-0.1,0.3-0.3,0-0.5l-5.3-3c-0.2-0.1-0.6-0.1-0.8,0l-5.5,3.2
				c-0.2,0.1-0.3,0.3,0,0.5L301.9,277.7z M275.9,292.7c0.2,0.1,0.6,0.1,0.8,0l5.5-3.2c0.2-0.1,0.3-0.3,0-0.5l-5.3-3
				c-0.2-0.1-0.6-0.1-0.8,0l-5.5,3.2c-0.2,0.1-0.3,0.3,0,0.5L275.9,292.7z M293.8,282.4c0.2,0.1,0.6,0.1,0.8,0l5.5-3.2
				c0.2-0.1,0.3-0.3,0-0.5l-5.3-3c-0.2-0.1-0.6-0.1-0.8,0l-5.5,3.2c-0.2,0.1-0.3,0.3,0,0.5L293.8,282.4z M259.8,302
				c0.2,0.1,0.6,0.1,0.8,0l5.5-3.2c0.2-0.1,0.3-0.3,0-0.5l-5.3-3c-0.2-0.1-0.6-0.1-0.8,0l-5.5,3.2c-0.2,0.1-0.3,0.3,0,0.5L259.8,302
				z M267.9,297.3c0.2,0.1,0.6,0.1,0.8,0l5.5-3.2c0.2-0.1,0.3-0.3,0-0.5l-5.3-3c-0.2-0.1-0.6-0.1-0.8,0l-5.5,3.2
				c-0.2,0.1-0.3,0.3,0,0.5L267.9,297.3z M309.7,271c0.2,0.1,0.6,0.1,0.8,0l5.5-3.2c0.2-0.1,0.3-0.3,0-0.5l-1.4-0.8
				c-0.2-0.1-0.6-0.1-0.8,0l-5.5,3.2c-0.2,0.1-0.3,0.3,0,0.5L309.7,271z M333.9,257c0.2,0.1,0.6,0.1,0.8,0l5.5-3.2
				c0.2-0.1,0.3-0.3,0-0.5l-1.4-0.8c-0.2-0.1-0.6-0.1-0.8,0l-5.5,3.2c-0.2,0.1-0.3,0.3,0,0.5L333.9,257z M344.9,263.4
				c0.2,0.1,0.6,0.1,0.8,0l5.5-3.2c0.2-0.1,0.3-0.3,0-0.5l-5.3-3c-0.2-0.1-0.6-0.1-0.8,0l-5.5,3.2c-0.2,0.1-0.3,0.3,0,0.5
				L344.9,263.4z M360.3,281.1l5.5-3.2c0.2-0.1,0.3-0.3,0-0.5l-5.3-3c-0.2-0.1-0.6-0.1-0.8,0l-5.5,3.2c-0.2,0.1-0.3,0.3,0,0.5l5.3,3
				C359.7,281.2,360,281.2,360.3,281.1z M317.8,266.3c0.2,0.1,0.6,0.1,0.8,0l5.5-3.2c0.2-0.1,0.3-0.3,0-0.5l-1.4-0.8
				c-0.2-0.1-0.6-0.1-0.8,0l-5.5,3.2c-0.2,0.1-0.3,0.3,0,0.5L317.8,266.3z M251.8,306.6c0.2,0.1,0.6,0.1,0.8,0l5.5-3.2
				c0.2-0.1,0.3-0.3,0-0.5l-5.3-3c-0.2-0.1-0.6-0.1-0.8,0l-5.5,3.2c-0.2,0.1-0.3,0.3,0,0.5L251.8,306.6z"/>
		</g>
		<polygon id="XMLID_268_" class="st6" points="275.6,348.2 276.7,348.8 306.8,366.2 360.1,335.3 361.2,334.7 330.1,316.7 		"/>
		<g id="XMLID_261_">
			<polygon id="XMLID_266_" class="st8" points="276.7,348.8 306.8,366.2 360.1,335.3 330.1,318 			"/>
		</g>
	</g>
</g>
<g id="Mail_Box">
	<g id="MailBox_2_">
		<g>
			<g>
				<path class="st2" d="M107.1,213.2l-12.2-7.1c-0.5-0.3-0.9-0.4-1.2-0.3c-0.3,0.1-1.3,0.7-1.5,0.9c-0.3,0.1-0.3,0.6,0.1,1.3l3,6.2
					l-2.2,2c-1,0.9-0.9,2.3,0.3,2.9l12.2,7.1l1.5-0.9V213.2z"/>
				<path class="st10" d="M107.1,213.2l-12.2-7.1c-0.5-0.3-0.9-0.4-1.2-0.3c-0.3,0.1-1.3,0.7-1.5,0.9c-0.3,0.1-0.3,0.6,0.1,1.3
					l3,6.2l-2.2,2c-1,0.9-0.9,2.3,0.3,2.9l12.2,7.1l1.5-0.9V213.2z"/>
				<path id="XMLID_1090_" class="st2" d="M93.3,207c-1.2-0.7-1.7-0.2-1.1,1l3,6.2l-2.2,2c-1,0.9-0.9,2.3,0.3,2.9l12.2,7.1v-12.1
					L93.3,207z"/>
			</g>
			<g id="XMLID_1088_">
				<path id="XMLID_1089_" class="st7" d="M107,252.1c-0.8,0-1.4-0.6-1.4-1.4v-40.6c0-0.8,0.6-1.4,1.4-1.4c0.8,0,1.4,0.6,1.4,1.4
					v40.6C108.4,251.5,107.8,252.1,107,252.1z"/>
			</g>
		</g>
		<g>
			<path id="XMLID_1087_" class="st8" d="M54.4,360.3v-2.5H55c0.7-1.5,2.1-2.9,4.1-4c6.3-3.6,16.6-3.6,22.9,0c2,1.2,3.4,2.6,4.1,4
				h0.6v2.5c0.1,2.4-1.5,4.9-4.7,6.7c-6.3,3.6-16.6,3.6-22.9,0C55.9,365.1,54.4,362.7,54.4,360.3z"/>
			<ellipse id="XMLID_628_" class="st7" cx="70.6" cy="357.7" rx="16.2" ry="9.3"/>
		</g>
		<g>
			<path id="XMLID_1085_" class="st6" d="M74.7,269.8l0,86.9c0,0.6-0.4,1.2-1.2,1.7c-1.6,0.9-4.3,0.9-5.9,0
				c-0.8-0.5-1.2-1.1-1.2-1.7l0-86.9H74.7z"/>
			<polygon id="XMLID_1084_" class="st8" points="66.4,280.3 66.4,288.4 74.7,293.2 74.7,285.1 			"/>
		</g>
		<g>
			<path class="st2" d="M96.6,262l15.4,8.9c-0.1,0.1-0.2,0.2-0.3,0.3l-26.9,15.6c-0.2,0.1-0.4,0-0.4-0.2v-19.4
				c0-3.4,0.8-7.1,2.3-10.9L96.6,262z"/>
			<path class="st11" d="M96.6,262l15.4,8.9c-0.1,0.1-0.2,0.2-0.3,0.3l-26.9,15.6c-0.2,0.1-0.4,0-0.4-0.2v-19.4
				c0-3.4,0.8-7.1,2.3-10.9L96.6,262z"/>
			<path id="XMLID_1083_" class="st2" d="M112.1,249.3V271l-25.5-14.7c0-0.1,0.1-0.1,0.1-0.2c2.7-6.8,7.3-12.6,12.3-15.5
				c2.1-1.2,4-1.8,5.8-1.8C109.3,238.7,112.1,242.8,112.1,249.3z"/>
			<path id="XMLID_629_" class="st3" d="M112.1,249.3V271l-25.5-14.7c0-0.1,0.1-0.1,0.1-0.2c2.7-6.8,7.3-12.6,12.3-15.5
				c2.1-1.2,4-1.8,5.8-1.8C109.3,238.7,112.1,242.8,112.1,249.3z"/>
		</g>
		<g id="XMLID_1075_">
			<path id="XMLID_627_" class="st2" d="M139.8,295.2l0-1.9h-0.2v0.3c-0.1-0.5-0.3-1.1-0.5-1.6c-1-2.4-3.2-4.7-6.4-6.5l-18.2-10.5
				c-0.8-0.4-2-0.4-2.7,0L83.8,291c-0.3-0.3-0.6-0.5-0.9-1l0,2v0l0,0c0,0.3,0.2,0.6,0.6,0.8l18.2,10.5c4.9,2.8,11.3,4.2,17.4,4.1
				c5.3-0.1,10.5-1.2,14.5-3.5C137.8,301.5,139.8,298.4,139.8,295.2L139.8,295.2z"/>
			<path id="XMLID_634_" class="st11" d="M139.8,295.2l0-1.9h-0.2v0.3c-0.1-0.5-0.3-1.1-0.5-1.6c-1-2.4-3.2-4.7-6.4-6.5l-18.2-10.5
				c-0.8-0.4-2-0.4-2.7,0L83.8,291c-0.3-0.3-0.6-0.5-0.9-1l0,2v0l0,0c0,0.3,0.2,0.6,0.6,0.8l18.2,10.5c4.9,2.8,11.3,4.2,17.4,4.1
				c5.3-0.1,10.5-1.2,14.5-3.5C137.8,301.5,139.8,298.4,139.8,295.2L139.8,295.2z"/>
			<path id="XMLID_1077_" class="st2" d="M139.1,292c-1-2.4-3.2-4.7-6.4-6.5l-18.2-10.5c-0.8-0.4-2-0.4-2.7,0L83.8,291l17.9,10.3
				c4.9,2.8,11.3,4.2,17.4,4.1c5.3-0.1,10.5-1.2,14.5-3.5c3.7-2.1,5.7-4.9,6.1-7.7C139.7,293.5,139.5,292.7,139.1,292z"/>
			<path id="XMLID_632_" class="st12" d="M139.1,292c-1-2.4-3.2-4.7-6.4-6.5l-18.2-10.5c-0.8-0.4-2-0.4-2.7,0L83.8,291l17.9,10.3
				c4.9,2.8,11.3,4.2,17.4,4.1c5.3-0.1,10.5-1.2,14.5-3.5c3.7-2.1,5.7-4.9,6.1-7.7C139.7,293.5,139.5,292.7,139.1,292z"/>
			<path id="XMLID_1076_" class="st2" d="M139.8,294.2c-0.1-0.8-0.3-1.5-0.6-2.3c-1-2.4-3.2-4.7-6.4-6.5l-18.2-10.5
				c-0.8-0.4-2-0.4-2.7,0L83.8,291l-0.3-0.2c-0.8-0.4-0.8-1.1,0-1.6l28.2-16.3c0.8-0.4,2-0.4,2.7,0l18.2,10.5
				c3.3,1.9,5.4,4.2,6.4,6.5c0.3,0.8,0.6,1.6,0.6,2.4C139.8,293,139.8,293.6,139.8,294.2z"/>
			<path id="XMLID_635_" class="st3" d="M139.8,294.2c-0.1-0.8-0.3-1.5-0.6-2.3c-1-2.4-3.2-4.7-6.4-6.5l-18.2-10.5
				c-0.8-0.4-2-0.4-2.7,0L83.8,291l-0.3-0.2c-0.8-0.4-0.8-1.1,0-1.6l28.2-16.3c0.8-0.4,2-0.4,2.7,0l18.2,10.5
				c3.3,1.9,5.4,4.2,6.4,6.5c0.3,0.8,0.6,1.6,0.6,2.4C139.8,293,139.8,293.6,139.8,294.2z"/>
		</g>
		<polygon id="XMLID_1074_" class="st2" points="84.1,289 112.3,272.7 111.7,271.2 84.8,286.8 		"/>
		<polygon id="XMLID_631_" class="st13" points="84.1,289 112.3,272.7 111.7,271.2 84.8,286.8 		"/>
		<g>
			<g id="Letter_6_">
				<g id="XMLID_1028_">
					<g id="XMLID_1030_">
						<path id="XMLID_624_" class="st0" d="M109.6,248c0-0.4-0.3-0.9-0.7-1.2L74.6,227c-0.4-0.2-1-0.2-1.3,0l-0.8,0.4
							c-0.4,0.2-0.7,0.7-0.7,1.2v26.3c0,0.4,0.3,0.9,0.7,1.2l34.3,19.8c0.4,0.2,1,0.2,1.3,0l0.8-0.4c0.4-0.2,0.7-0.7,0.7-1.2
							L109.6,248z"/>
					</g>
				</g>
				<path id="XMLID_1027_" class="st1" d="M109.4,247.3l-1.9,1.1l-35.5-20.5c0.1-0.2,0.3-0.4,0.5-0.5l0.8-0.4c0.4-0.2,1-0.2,1.3,0
					l34.3,19.8C109.1,246.9,109.3,247.1,109.4,247.3z"/>
				<g id="XMLID_1025_">
					<g id="XMLID_1026_">
						<path class="st2" d="M107.4,276c0,0,0.1,0,0.1,0L107.4,276C107.4,276,107.4,276,107.4,276z"/>
						<path class="st14" d="M107.5,248.4l-0.4,0.2c0.2,0.1,0.4,0.3,0.4,0.6v26.3c0,0.2-0.1,0.4-0.2,0.4c-0.1,0-0.2,0-0.3,0
							c0,0-0.1,0-0.1-0.1l-34.3-19.8c-0.4-0.2-0.7-0.7-0.7-1.2v-26.3c0-0.2,0.1-0.5,0.2-0.7L107.5,248.4z"/>
					</g>
				</g>
				<path id="XMLID_623_" class="st12" d="M107.5,248.4l-15.9,5.9c-1.1,0.4-2.4,0-3.1-1l-2.6-3.9l-14.1-21.6l13.6,21.7l-13.6,5.3
					c0,0.2,0.1,0.5,0.2,0.7l13.5-5.9l3,4.7c0.7,1.1,2.1,1.5,3.2,1l2.1-0.9l13.5,21.5c0.1-0.1,0.2-0.2,0.2-0.4V275l-13.6-20.6
					L107.5,248.4z"/>
			</g>
			<g id="Letter_5_">
				<g id="XMLID_621_">
					<g id="XMLID_622_">
						<path id="XMLID_1023_" class="st0" d="M101.5,252.6c0-0.4-0.3-0.9-0.7-1.2l-34.3-19.8c-0.4-0.2-1-0.2-1.3,0l-0.8,0.4
							c-0.4,0.2-0.7,0.7-0.7,1.2v26.3c0,0.4,0.3,0.9,0.7,1.2l34.3,19.8c0.4,0.2,1,0.2,1.3,0l0.8-0.4c0.4-0.2,0.7-0.7,0.7-1.2
							L101.5,252.6z"/>
					</g>
				</g>
				<path id="XMLID_1020_" class="st1" d="M101.3,252l-1.9,1.1l-35.5-20.5c0.1-0.2,0.3-0.4,0.5-0.5l0.8-0.4c0.4-0.2,1-0.2,1.3,0
					l34.3,19.8C101,251.6,101.2,251.7,101.3,252z"/>
				<g id="XMLID_619_">
					<g id="XMLID_1016_">
						<path class="st2" d="M99.3,280.7c0,0,0.1,0,0.1,0L99.3,280.7C99.3,280.7,99.3,280.7,99.3,280.7z"/>
						<path class="st14" d="M99.4,253l-0.4,0.2c0.2,0.1,0.4,0.3,0.4,0.6v26.3c0,0.2-0.1,0.4-0.2,0.4c-0.1,0-0.2,0-0.3,0
							c-0.1,0-0.1,0-0.1-0.1l-34.3-19.8c-0.4-0.2-0.7-0.7-0.7-1.2v-26.3c0-0.2,0.1-0.5,0.2-0.7L99.4,253z"/>
					</g>
				</g>
				<path id="XMLID_1003_" class="st12" d="M99.4,253.1L83.5,259c-1.1,0.4-2.4,0-3.1-1l-2.6-3.9l-14.1-21.6l13.6,21.7l-13.6,5.3
					c0,0.2,0.1,0.5,0.2,0.7l13.5-5.9l3,4.7c0.7,1.1,2.1,1.5,3.2,1l2.1-0.9l13.5,21.5c0.1-0.1,0.2-0.2,0.2-0.4v-0.4l-13.6-20.6
					L99.4,253.1z"/>
			</g>
			<g id="Letter_4_">
				<g id="XMLID_617_">
					<g id="XMLID_942_">
						<path id="XMLID_618_" class="st0" d="M93.4,257.3c0-0.4-0.3-0.9-0.7-1.2l-34.3-19.8c-0.4-0.2-1-0.2-1.3,0l-0.8,0.4
							c-0.4,0.2-0.7,0.7-0.7,1.2v26.3c0,0.4,0.3,0.9,0.7,1.2l34.3,19.8c0.4,0.2,1,0.2,1.3,0l0.8-0.4c0.4-0.2,0.7-0.7,0.7-1.2
							L93.4,257.3z"/>
					</g>
				</g>
				<path id="XMLID_616_" class="st1" d="M93.2,256.6l-1.9,1.1l-35.5-20.5c0.1-0.2,0.3-0.4,0.5-0.5l0.8-0.4c0.4-0.2,1-0.2,1.3,0
					l34.3,19.8C92.9,256.2,93.1,256.4,93.2,256.6z"/>
				<g id="XMLID_614_">
					<g id="XMLID_615_">
						<path class="st2" d="M91.1,285.3c0,0,0.1,0,0.1,0L91.1,285.3C91.2,285.3,91.2,285.3,91.1,285.3z"/>
						<path class="st14" d="M91.3,257.7l-0.4,0.2c0.2,0.1,0.4,0.3,0.4,0.6v26.3c0,0.2-0.1,0.4-0.2,0.4c-0.1,0-0.2,0.1-0.3,0
							c0,0-0.1,0-0.1-0.1l-34.3-19.8c-0.4-0.2-0.7-0.7-0.7-1.2v-26.3c0-0.2,0.1-0.5,0.2-0.7L91.3,257.7z"/>
					</g>
				</g>
				<path id="XMLID_613_" class="st12" d="M91.3,257.7l-15.9,5.9c-1.1,0.4-2.4,0-3.1-1l-2.6-3.9l-14.1-21.6l13.6,21.7l-13.6,5.3
					c0,0.2,0.1,0.5,0.2,0.7l13.5-5.9l3,4.7c0.7,1.1,2.1,1.5,3.2,1l2.1-0.9l13.5,21.5c0.1-0.1,0.2-0.2,0.2-0.4v-0.4l-13.6-20.6
					L91.3,257.7z"/>
			</g>
		</g>
		<g>
			<path class="st2" d="M108.6,238c-2.7-1.4-6.4-1.2-10.3,1.1c-4.4,2.6-8.5,7.2-11.3,12.5c-0.7,1.2-1.2,2.5-1.8,3.8
				c-1.6,3.9-2.5,7.9-2.5,11.7v22.2c-0.5,0-1-0.1-1.4-0.3l-39.5-22.8c-0.8-0.4-1.4-1.5-1.4-2.4v-21.1c0-10.5,6.9-23,15.5-28
				c4-2.3,7.7-2.5,10.5-1l0,0L108.6,238z"/>
			<path class="st12" d="M108.6,238c-2.7-1.4-6.4-1.2-10.3,1.1c-4.4,2.6-8.5,7.2-11.3,12.5c-0.7,1.2-1.2,2.5-1.8,3.8
				c-1.6,3.9-2.5,7.9-2.5,11.7v22.2c-0.5,0-1-0.1-1.4-0.3l-39.5-22.8c-0.8-0.4-1.4-1.5-1.4-2.4v-21.1c0-10.5,6.9-23,15.5-28
				c4-2.3,7.7-2.5,10.5-1l0,0L108.6,238z"/>
			<path class="st13" d="M41.9,266.2L81.4,289c0.4,0.2,0.9,0.3,1.4,0.3v-22.2c0-2,0.3-4.1,0.7-6.2l-42.2-24.4
				c-0.5,2.1-0.7,4.2-0.7,6.2v21.1C40.5,264.6,41.1,265.7,41.9,266.2z"/>
			<path class="st2" d="M85.2,255.4c-1.6,3.9-2.5,7.9-2.5,11.7v22.2c-0.2,0-0.3,0-0.5-0.1c0-1.3,0-8.4,0-22.1
				c0-16.3,12.6-26.7,16-28c-4.4,2.6-8.5,7.2-11.3,12.5C86.3,252.9,85.7,254.2,85.2,255.4z"/>
			<path class="st11" d="M85.2,255.4c-1.6,3.9-2.5,7.9-2.5,11.7v22.2c-0.2,0-0.3,0-0.5-0.1c0-1.3,0-8.4,0-22.1
				c0-16.3,12.6-26.7,16-28c-4.4,2.6-8.5,7.2-11.3,12.5C86.3,252.9,85.7,254.2,85.2,255.4z"/>
		</g>
		<path id="XMLID_607_" class="st2" d="M84.8,286.8c-0.2,0.1-0.4,0-0.4-0.2v-19.4c0-3.4,0.8-7.1,2.3-10.9c0-0.1,0.1-0.1,0.1-0.2
			c0.6-1.4,1.2-2.7,1.9-4c2.7-5.1,6.5-9.2,10.5-11.5c2.1-1.2,4-1.8,5.8-1.8c1.1,0,2.1,0.3,3,0.7c2.7,1.4,4.3,4.9,4.3,9.8v21.2
			c0,0.3-0.2,0.6-0.4,0.7l0.6,1.5c0,0,0.1-0.1,0.1-0.1c0.2-0.1,0.4-0.3,0.6-0.5c0,0,0,0,0,0c0.4-0.5,0.7-1.2,0.7-1.7v-21.1
			c0-5.6-2-9.6-5.2-11.2c-2.7-1.4-6.3-1.2-10.3,1.1c-4.4,2.6-8.5,7.2-11.3,12.5c-0.7,1.2-1.2,2.5-1.8,3.8c-1.5,3.9-2.5,7.9-2.5,11.7
			v22.2c0.1,0,0.2,0,0.2,0c0.4,0,0.8-0.1,1.1-0.3L84.8,286.8z"/>
		<path id="XMLID_630_" class="st13" d="M84.8,286.8c-0.2,0.1-0.4,0-0.4-0.2v-19.4c0-3.4,0.8-7.1,2.3-10.9c0-0.1,0.1-0.1,0.1-0.2
			c0.6-1.4,1.2-2.7,1.9-4c2.7-5.1,6.5-9.2,10.5-11.5c2.1-1.2,4-1.8,5.8-1.8c1.1,0,2.1,0.3,3,0.7c2.7,1.4,4.3,4.9,4.3,9.8v21.2
			c0,0.3-0.2,0.6-0.4,0.7l0.6,1.5c0,0,0.1-0.1,0.1-0.1c0.2-0.1,0.4-0.3,0.6-0.5c0,0,0,0,0,0c0.4-0.5,0.7-1.2,0.7-1.7v-21.1
			c0-5.6-2-9.6-5.2-11.2c-2.7-1.4-6.3-1.2-10.3,1.1c-4.4,2.6-8.5,7.2-11.3,12.5c-0.7,1.2-1.2,2.5-1.8,3.8c-1.5,3.9-2.5,7.9-2.5,11.7
			v22.2c0.1,0,0.2,0,0.2,0c0.4,0,0.8-0.1,1.1-0.3L84.8,286.8z"/>
	</g>
</g>
<g id="Envelopes">
	<g id="Envelope_1_">
		<g id="Letter_1_">
			<g id="XMLID_679_">
				<g id="XMLID_682_">
					<path id="XMLID_684_" class="st2" d="M178.9,229.9c0-1.7,1.2-3.7,2.6-4.5l128.2-74c1.4-0.8,3.8-0.8,5.2,0l2.9,1.7
						c1.4,0.8,2.6,2.8,2.6,4.5v101.9c0,1.6-1.2,3.7-2.6,4.5l-128.2,74c-1.4,0.8-3.8,0.8-5.2,0l-2.9-1.7c-1.4-0.8-2.6-2.9-2.6-4.5
						L178.9,229.9z"/>
				</g>
			</g>
			<g id="XMLID_880_" class="st15">
				<g id="XMLID_901_">
					<path id="XMLID_904_" class="st4" d="M178.9,229.9c0-1.7,1.2-3.7,2.6-4.5l128.2-74c1.4-0.8,3.8-0.8,5.2,0l2.9,1.7
						c1.4,0.8,2.6,2.8,2.6,4.5v101.9c0,1.6-1.2,3.7-2.6,4.5l-128.2,74c-1.4,0.8-3.8,0.8-5.2,0l-2.9-1.7c-1.4-0.8-2.6-2.9-2.6-4.5
						L178.9,229.9z"/>
				</g>
			</g>
			<path id="XMLID_677_" class="st2" d="M179.7,227.3l7.4,4.3L319.7,155c-0.5-0.8-1.1-1.5-1.8-1.9l-2.9-1.7c-1.4-0.8-3.8-0.8-5.2,0
				l-128.2,74C180.8,225.8,180.2,226.5,179.7,227.3z"/>
			<path id="XMLID_687_" class="st16" d="M179.7,227.3l7.4,4.3L319.7,155c-0.5-0.8-1.1-1.5-1.8-1.9l-2.9-1.7c-1.4-0.8-3.8-0.8-5.2,0
				l-128.2,74C180.8,225.8,180.2,226.5,179.7,227.3z"/>
			<path id="XMLID_676_" class="st17" d="M178.9,229.9v101.9c0,1.7,1.2,3.7,2.6,4.5l2.9,1.7c0.2,0.1,0.5,0.2,0.7,0.3
				c0.3,0.1,0.7,0.2,1.1,0.2c0.7,0.1,1.4,0.1,2.1-0.1c0.2,0,0.3-0.1,0.5-0.1c0.1,0,0.2-0.1,0.3-0.1c-0.5,0.2-0.9,0.1-1.3,0
				c-0.5-0.3-0.8-0.8-0.8-1.7V234.6c0-1.1,0.5-1.9,1.4-2.2l-1.4-0.8l-7.4-4.3C179.2,228.1,178.9,229.1,178.9,229.9z"/>
			<path id="XMLID_919_" class="st18" d="M178.9,229.9v101.9c0,1.7,1.2,3.7,2.6,4.5l2.9,1.7c0.2,0.1,0.5,0.2,0.7,0.3
				c0.3,0.1,0.7,0.2,1.1,0.2c0.7,0.1,1.4,0.1,2.1-0.1c0.2,0,0.3-0.1,0.5-0.1c0.1,0,0.2-0.1,0.3-0.1c-0.5,0.2-0.9,0.1-1.3,0
				c-0.5-0.3-0.8-0.8-0.8-1.7V234.6c0-1.1,0.5-1.9,1.4-2.2l-1.4-0.8l-7.4-4.3C179.2,228.1,178.9,229.1,178.9,229.9z"/>
			<path id="XMLID_675_" class="st19" d="M187.1,231.6l61.6,23c4.4,1.6,9.3,0,11.9-3.9l9.9-15.1l49.3-80.5l-47.3,81.1l48.1,23.4
				c0,0.8-0.3,1.8-0.8,2.6l-47.4-25.8l-11.5,18.4c-2.6,4.2-8,5.9-12.5,3.8l-8.2-3.6l-52.1,83.2c-0.5-0.3-0.8-0.8-0.8-1.7v-1.7
				l52.7-79.9L187.1,231.6z"/>
			<path id="XMLID_920_" class="st18" d="M187.1,231.6l61.6,23c4.4,1.6,9.3,0,11.9-3.9l9.9-15.1l49.3-80.5l-47.3,81.1l48.1,23.4
				c0,0.8-0.3,1.8-0.8,2.6l-47.4-25.8l-11.5,18.4c-2.6,4.2-8,5.9-12.5,3.8l-8.2-3.6l-52.1,83.2c-0.5-0.3-0.8-0.8-0.8-1.7v-1.7
				l52.7-79.9L187.1,231.6z"/>
		</g>
	</g>
	<g id="Envelope">
		<g id="Letter_2_">
			<g id="XMLID_670_">
				<g id="XMLID_671_">
					<path id="XMLID_672_" class="st2" d="M211.4,248.7c0-1.7,1.2-3.7,2.6-4.5l128.2-74c1.4-0.8,3.8-0.8,5.2,0l2.9,1.7
						c1.4,0.8,2.6,2.8,2.6,4.5v101.9c0,1.6-1.2,3.7-2.6,4.5l-128.2,74c-1.4,0.8-3.8,0.8-5.2,0L214,355c-1.4-0.8-2.6-2.8-2.6-4.5
						L211.4,248.7z"/>
				</g>
			</g>
			<g id="XMLID_832_" class="st20">
				<g id="XMLID_833_">
					<path id="XMLID_860_" class="st4" d="M211.4,248.7c0-1.7,1.2-3.7,2.6-4.5l128.2-74c1.4-0.8,3.8-0.8,5.2,0l2.9,1.7
						c1.4,0.8,2.6,2.8,2.6,4.5v101.9c0,1.6-1.2,3.7-2.6,4.5l-128.2,74c-1.4,0.8-3.8,0.8-5.2,0L214,355c-1.4-0.8-2.6-2.8-2.6-4.5
						L211.4,248.7z"/>
				</g>
			</g>
			<path id="XMLID_669_" class="st2" d="M212.2,246.1l7.4,4.3l132.6-76.6c-0.5-0.8-1.1-1.5-1.8-1.9l-2.9-1.7c-1.4-0.8-3.8-0.8-5.2,0
				l-128.2,74C213.3,244.6,212.7,245.3,212.2,246.1z"/>
			<path id="XMLID_686_" class="st21" d="M212.2,246.1l7.4,4.3l132.6-76.6c-0.5-0.8-1.1-1.5-1.8-1.9l-2.9-1.7
				c-1.4-0.8-3.8-0.8-5.2,0l-128.2,74C213.3,244.6,212.7,245.3,212.2,246.1z"/>
			<path id="XMLID_668_" class="st13" d="M211.4,248.7v101.9c0,1.7,1.2,3.7,2.6,4.5l2.9,1.7c0.2,0.1,0.5,0.2,0.7,0.3
				c0.3,0.1,0.7,0.2,1.1,0.2c0.7,0.1,1.4,0.1,2.1-0.1c0.2,0,0.3-0.1,0.5-0.1c0.1,0,0.2-0.1,0.3-0.1c-0.5,0.2-0.9,0.1-1.2,0
				c-0.5-0.3-0.8-0.8-0.8-1.7V253.3c0-1.1,0.5-1.9,1.4-2.2l-1.4-0.8l-7.4-4.3C211.7,246.9,211.4,247.8,211.4,248.7z"/>
			<path id="XMLID_667_" class="st22" d="M219.6,250.4l61.6,23c4.4,1.6,9.3,0,11.9-3.9l9.9-15.1l49.3-80.5l-47.3,81.1l48.1,23.4
				c0,0.8-0.3,1.8-0.8,2.6l-47.4-25.8l-11.5,18.4c-2.6,4.2-8,5.9-12.5,3.8l-8.2-3.6l-52.1,83.2c-0.5-0.3-0.8-0.8-0.8-1.7v-1.7
				l52.7-79.9L219.6,250.4z"/>
			<path id="XMLID_921_" class="st18" d="M219.6,250.4l61.6,23c4.4,1.6,9.3,0,11.9-3.9l9.9-15.1l49.3-80.5l-47.3,81.1l48.1,23.4
				c0,0.8-0.3,1.8-0.8,2.6l-47.4-25.8l-11.5,18.4c-2.6,4.2-8,5.9-12.5,3.8l-8.2-3.6l-52.1,83.2c-0.5-0.3-0.8-0.8-0.8-1.7v-1.7
				l52.7-79.9L219.6,250.4z"/>
		</g>
	</g>
</g>
<g id="Open_Envelope_1_">
	<g id="Open_Envelope">
		<g id="XMLID_1080_">
			<path id="XMLID_1109_" class="st2" d="M244.2,268.3l133.4-77l5.3,3.1c1.4,0.8,2.5,2.8,2.5,4.3v98.4c0,1.6-1.1,3.5-2.5,4.3
				l-128.4,74.1c-1.4,0.8-3.6,0.8-5,0l-2.8-1.6c-1.4-0.8-2.5-2.8-2.5-4.3L244.2,268.3z"/>
			<path id="XMLID_1108_" class="st12" d="M244.2,268.3l133.4-77l5.3,3.1c1.4,0.8,2.5,2.8,2.5,4.3v98.4c0,1.6-1.1,3.5-2.5,4.3
				l-128.4,74.1c-1.4,0.8-3.6,0.8-5,0l-2.8-1.6c-1.4-0.8-2.5-2.8-2.5-4.3L244.2,268.3z"/>
			<path id="XMLID_1107_" class="st2" d="M376.8,182.6l0.5-0.3l-2.1-1.2v0c-0.2-0.1-0.4-0.2-0.6-0.3l-58.7-21.8
				c-1.6-0.6-3.6,0.1-4.5,1.4l-65.7,95.9c-0.9,1.4-1.7,3.8-1.7,5.5c0,2.7,0,6.4,0,6.4l2,1.2l131.3-78.2v-6.4
				C377.6,184.1,377.3,183.3,376.8,182.6z"/>
			<path id="XMLID_1106_" class="st13" d="M314.3,161c-0.3,0.2-0.5,0.4-0.7,0.7l-65.7,95.9c-0.5,0.7-0.9,1.7-1.2,2.7l-2-1.2
				c0.1-0.5,0.3-1,0.5-1.5c0,0,0,0,0,0c0.1-0.2,0.2-0.4,0.3-0.6c0,0,0-0.1,0-0.1c0.1-0.2,0.2-0.4,0.4-0.6l65.7-95.9
				c0.1-0.2,0.2-0.3,0.3-0.4c0.1-0.1,0.2-0.2,0.4-0.3L314.3,161z"/>
			<path id="XMLID_1105_" class="st23" d="M377.4,182.3c-0.2-0.1-0.4-0.2-0.6-0.3l-58.7-21.8c-1.2-0.5-2.8-0.1-3.8,0.7l-2-1.2
				c1-0.9,2.6-1.2,3.8-0.7l58.7,21.8c0.2,0.1,0.4,0.2,0.5,0.3L377.4,182.3z"/>
			<g id="XMLID_1093_">
				<path id="XMLID_1104_" class="st2" d="M245.5,257c0.1-0.2,0.2-0.4,0.4-0.6C245.8,256.6,245.7,256.8,245.5,257z"/>
				<path id="XMLID_1103_" class="st2" d="M311.9,160.1c0.1-0.1,0.2-0.2,0.4-0.3C312.1,159.9,312,160,311.9,160.1z"/>
				<path id="XMLID_1100_" class="st2" d="M244.7,259.2c0.2-0.5,0.3-1,0.5-1.5C245,258.2,244.8,258.7,244.7,259.2z"/>
				<path id="XMLID_1099_" class="st2" d="M245.2,257.7c0.1-0.2,0.2-0.4,0.3-0.6C245.4,257.3,245.3,257.5,245.2,257.7z"/>
				<path id="XMLID_1098_" class="st12" d="M245.2,257.7C245.2,257.7,245.2,257.7,245.2,257.7C245.2,257.7,245.2,257.7,245.2,257.7z
					"/>
				<polygon id="XMLID_1097_" class="st12" points="244.7,259.2 244.7,259.2 244.7,259.2 				"/>
				<polygon id="XMLID_1096_" class="st12" points="312.2,159.8 312.2,159.8 312.2,159.8 				"/>
				<path id="XMLID_1095_" class="st12" d="M245.5,257.1C245.5,257.1,245.5,257,245.5,257.1C245.5,257,245.5,257.1,245.5,257.1z"/>
				<path id="XMLID_1094_" class="st12" d="M311.6,160.5c0.1-0.1,0.2-0.3,0.3-0.4C311.8,160.2,311.7,160.4,311.6,160.5z"/>
			</g>
			<path id="XMLID_1092_" class="st2" d="M313.6,161.7l-65.7,95.9c-0.9,1.4-1.7,3.8-1.7,5.5c0,2.7,0,6.4,0,6.4l133.4-77l0-6.4
				c0-1.7-1.3-3.5-2.8-4l-58.7-21.8C316.6,159.7,314.5,160.3,313.6,161.7z"/>
			<path id="XMLID_1091_" class="st18" d="M379.6,186.1c0-0.8-0.3-1.6-0.7-2.2l-132.2,76.5c0,0,0,0,0,0c-0.3,0.9-0.5,1.9-0.5,2.7
				c0,2.7,0,6.4,0,6.4l133.4-77L379.6,186.1z"/>
		</g>
		<g>
			<path class="st24" d="M373.9,159c0-0.7-0.2-1.2-0.6-1.4c-0.4-0.2-3.7-2.1-4.1-2.4c-0.4-0.2-0.9-0.2-1.5,0.2l-109.4,63.2
				c-1.2,0.7-2.2,2.4-2.2,3.8l0,131c0,0.7,0.2,1.2,0.6,1.4c0.4,0.2,3.7,2.1,4.1,2.3c0.4,0.2,0.9,0.2,1.5-0.2l109.4-63.2
				c1.2-0.7,2.2-2.4,2.2-3.7L373.9,159z"/>
			<path class="st9" d="M262.4,357l109.4-63.2c1.2-0.7,2.2-2.4,2.2-3.8l0-131c0-1.4-1-1.9-2.2-1.3l-109.4,63.2
				c-1.2,0.7-2.2,2.4-2.2,3.8l0,131C260.2,357.1,261.2,357.7,262.4,357z"/>
			<g id="XMLID_662_">
				<path id="XMLID_663_" class="st2" d="M332.5,233c-0.1,1.6-0.4,3-0.8,4.4c-0.4,1.4-1,2.6-1.6,3.7c-0.6,1.1-1.3,2-2.1,2.8
					c-0.8,0.8-1.5,1.4-2.3,1.8c-1.4,0.7-2.4,1-3.2,0.8c-0.7-0.2-1.3-0.5-1.6-1c-0.2,0.5-0.5,1-0.7,1.6c-0.3,0.5-0.6,1-1,1.6
					c-0.4,0.5-0.9,1-1.5,1.5c-0.6,0.5-1.3,1-2.2,1.4c-1,0.5-1.9,0.7-2.7,0.5c-0.8-0.2-1.5-0.6-2-1.4c-0.5-0.8-0.9-1.8-1.2-3.2
					c-0.3-1.3-0.3-2.9-0.3-4.8c0.1-1.8,0.3-3.6,0.7-5.2c0.4-1.7,0.8-3.2,1.4-4.5c0.6-1.4,1.3-2.6,2.1-3.6c0.8-1,1.8-1.8,2.8-2.3
					c1.1-0.6,1.9-0.8,2.5-0.5c0.5,0.2,1,0.6,1.3,1.2l0-0.5c0-0.4,0.1-0.9,0.4-1.3c0.2-0.4,0.5-0.7,0.8-0.9l2.1-1.1
					c0.3-0.2,0.6-0.1,0.8,0.1c0.2,0.2,0.3,0.5,0.3,1l-0.5,12.8c0,1,0.1,1.6,0.5,1.9c0.4,0.3,0.9,0.3,1.4,0c0.5-0.3,1-0.8,1.5-1.5
					c0.4-0.7,0.7-1.8,0.8-3.1c0.1-1.1,0.2-2.3,0.2-3.4c0-1.2,0.1-2.3,0-3.3c-0.1-2.1-0.3-3.9-0.8-5.3c-0.5-1.4-1.1-2.4-2-3.1
					c-0.9-0.6-2-0.9-3.4-0.7c-1.4,0.1-3,0.7-4.9,1.7c-1.6,0.8-3,1.9-4.3,3.2c-1.3,1.3-2.4,2.8-3.4,4.4c-1,1.6-1.7,3.4-2.3,5.3
					c-0.6,1.9-1,3.9-1.3,5.9c-0.1,0.5-0.1,1.3-0.2,2.1c0,0.9-0.1,1.8-0.1,2.7c0,0.9-0.1,1.8-0.1,2.7c0,0.9,0,1.6,0,2.1
					c0.1,1.8,0.4,3.4,0.9,4.7c0.5,1.3,1.2,2.3,2,3.1c0.9,0.7,1.9,1.1,3.1,1.1c1.2,0,2.6-0.4,4.2-1.2c1.1-0.6,2.1-1.2,2.9-1.7
					c0.8-0.6,1.6-1.2,2.2-1.8c0.6-0.6,1.2-1.2,1.6-1.7c0.5-0.6,0.9-1.1,1.2-1.7c0.3-0.5,0.6-0.8,0.7-1.1c0.2-0.2,0.4-0.4,0.7-0.6
					l3-1.6c0.3-0.2,0.6-0.1,0.8,0c0.2,0.2,0.3,0.5,0.3,1.1c0,0.3-0.1,0.7-0.3,1c-0.6,1.1-1.3,2.3-2.1,3.6c-0.8,1.3-1.7,2.5-2.7,3.7
					c-1,1.2-2.3,2.4-3.7,3.5c-1.4,1.2-3.1,2.2-5,3.2c-2.4,1.2-4.5,1.8-6.2,1.7c-1.8-0.1-3.2-0.7-4.4-1.8c-1.2-1.1-2.1-2.6-2.7-4.6
					c-0.6-1.9-1-4.1-1-6.6c0-0.5,0-1.3,0-2.2c0-0.9,0.1-1.9,0.1-2.9c0-1,0.1-2,0.1-2.9c0-0.9,0.1-1.7,0.1-2.2
					c0.2-2.6,0.7-5.2,1.5-7.8c0.8-2.7,1.9-5.2,3.2-7.6c1.3-2.4,2.9-4.6,4.8-6.6c1.9-2,4-3.6,6.4-4.8c2.8-1.4,5.1-2.1,7.1-2.1
					c1.9,0,3.4,0.5,4.6,1.6c1.2,1.1,2,2.6,2.6,4.6c0.5,2,0.8,4.3,0.9,6.8c0,1,0,2.2-0.1,3.6C332.6,230.6,332.6,231.9,332.5,233z
					 M313.7,240.3c-0.1,2,0.1,3.4,0.6,4.2c0.5,0.8,1.2,1,2.2,0.5c1-0.5,1.8-1.4,2.3-2.8c0.5-1.3,0.9-3,0.9-5c0.1-2-0.1-3.4-0.6-4.2
					c-0.5-0.8-1.2-1-2.2-0.5c-1,0.5-1.7,1.4-2.3,2.8C314.1,236.6,313.8,238.3,313.7,240.3z"/>
			</g>
			<path class="st1" d="M260.2,355.7c0,0.6,0.2,1.1,0.5,1.3c-0.7-0.4-3.6-2.1-3.9-2.3c-0.4-0.2-0.6-0.7-0.6-1.4v-131
				c0-0.7,0.2-1.4,0.6-2.1l4.1,2.3c-0.4,0.7-0.6,1.4-0.6,2.1V355.7z"/>
		</g>
		<g id="XMLID_944_">
			<path id="XMLID_1018_" class="st2" d="M382,298.4c0,0.1-0.1,0.1-0.1,0.2L326.3,281c-4.4-1.9-9.5-0.4-12,3.7L254.9,373l-2.2,1.3
				l0,0c-0.7,0.4-1.3,0.4-1.7,0.2l61.1-91c2.5-4.1,7.7-5.6,12-3.7L382,298.4z"/>
			<path id="XMLID_1017_" class="st25" d="M308.8,293.3l0.1-0.1L254.9,373l-2.2,1.3l0,0c-0.7,0.4-1.3,0.4-1.7,0.2l55.7-82.4
				L308.8,293.3z"/>
			<path id="XMLID_1013_" class="st25" d="M382,298.4c0,0.1-0.1,0.1-0.1,0.2L326.3,281c-4.4-1.9-9.5-0.4-12,3.7l-2.2-1.3
				c2.5-4,7.6-5.6,12-3.7L382,298.4z"/>
			<path id="XMLID_1011_" class="st2" d="M385.4,198L385.4,198c-0.1-0.7-0.5-0.9-1-0.6c-0.2,0.1-0.4,0.4-0.6,0.7l-0.3,0.4
				l-54.8,83.4l-8.2,11.4c-0.9,1.3-2.9,2-4.5,1.7l-7.1-1.7l-54-19.9c-0.4-0.1-0.8-0.1-1.1,0c-0.1,0-0.3,0.1-0.4,0.1l2-1.2l51.7,19
				l6.8,2.4c1.6,0.4,3.6-0.4,4.5-1.7l8.2-11.4l55.1-83.8c0.2-0.3,0.4-0.4,0.6-0.6l-4.8-2.8l2-1.2l3.3,1.9
				C384.1,195,385.1,196.6,385.4,198z"/>
			<path id="XMLID_1010_" class="st25" d="M328.6,281.9l-8.2,11.4c-0.9,1.3-2.9,2-4.5,1.7l-7.1-1.7l0.1-0.1l0.3-0.5l4.6,1.1
				c1.6,0.4,3.6-0.4,4.5-1.7l8.1-11.3L328.6,281.9z"/>
			<path id="XMLID_1009_" class="st13" d="M382.9,194.3l-3.3-1.9l-2,1.1l4.8,2.8c0,0,0,0,0,0l0,0c-0.2,0.2-0.5,0.3-0.6,0.6
				l-55.1,83.8l-0.1,0.1v0l2,1.1l54.9-83.4l0.3-0.4c0.2-0.3,0.4-0.5,0.6-0.7c0.5-0.3,0.9-0.1,1,0.6h0
				C385.1,196.6,384.1,195,382.9,194.3z"/>
			<path id="XMLID_1008_" class="st2" d="M256,275.1l-11.8-6.8l0,101.3c0,1.6,1.1,3.5,2.5,4.3l2.8,1.6c1.4,0.8,3.6,0.8,5,0l1.4-0.8
				V275.1z"/>
			<path id="XMLID_1007_" class="st5" d="M256,275.1l-11.8-6.8l0,101.3c0,1.6,1.1,3.5,2.5,4.3l2.8,1.6c1.4,0.8,3.6,0.8,5,0l1.4-0.8
				V275.1z"/>
			<path id="XMLID_1005_" class="st2" d="M385.4,198.7v98.4c0,0.8-0.3,1.7-0.8,2.5c-0.4,0.7-0.9,1.3-1.5,1.7l-0.1,0
				c-0.1,0-0.1,0.1-0.2,0.1l-128.4,74.1l0,0c-0.7,0.4-1.3,0.4-1.7,0.2c-0.4-0.2-0.7-0.6-0.8-1.2c0-0.1,0-0.3,0-0.5v-98.4
				c0-1.6,1.3-2.6,2.8-2.2l54,19.9l7.1,1.7c1.6,0.4,3.6-0.4,4.5-1.7l8.2-11.4l54.8-83.4l0.3-0.4
				C384.7,196.8,385.4,197.1,385.4,198.7z"/>
			<path id="XMLID_1004_" class="st2" d="M382.9,301.4c0.1,0,0.1-0.1,0.2-0.1l0.1-0.1c0.6-0.4,1.1-1,1.5-1.6
				c0.5-0.8,0.8-1.7,0.8-2.5l-56.8-15.2l38,28.9L382.9,301.4z"/>
			<path id="XMLID_1000_" class="st12" d="M382.9,301.4c0.1,0,0.1-0.1,0.2-0.1l0.1-0.1c0.6-0.4,1.1-1,1.5-1.6
				c0.5-0.8,0.8-1.7,0.8-2.5l-56.8-15.2l38,28.9L382.9,301.4z"/>
			<path id="XMLID_999_" class="st2" d="M252.1,374.1c0,0.8,0.3,1.4,0.8,1.7c0.4,0.2,1,0.2,1.7-0.2l0,0l44.2-25.5l10.1-56.7
				l-56.8,79.1L252.1,374.1z"/>
			<path id="XMLID_998_" class="st5" d="M314.3,284.6l-61.5,91.1c-0.5-0.3-0.8-0.8-0.8-1.6l0-1.6l60-89c0,0,0,0,0,0L314.3,284.6z"/>
			<path id="XMLID_992_" class="st2" d="M384.7,299.6c-0.4,0.7-0.9,1.2-1.5,1.6l-0.1,0.1l-128.5,74.2l0,0c-0.7,0.4-1.3,0.4-1.7,0.2
				l61.5-91.1c2.5-4.1,7.7-5.6,12.1-3.7L384.7,299.6z"/>
			<path id="XMLID_966_" class="st5" d="M244.7,259.2l2,1.2c-0.3,1-0.5,1.9-0.5,2.7c0,2.7,0,6.4,0,6.4l-2-1.2c0,0,0-3.6,0-6.4
				C244.2,261.1,244.4,260.1,244.7,259.2z"/>
			<polygon id="XMLID_946_" class="st2" points="255.4,272.4 253.4,273.5 251.3,272.4 246.2,269.4 248.2,268.3 			"/>
			<path id="XMLID_945_" class="st13" d="M255.5,272.4l-7.3-4.1l-2,1.2l5.1,2.9l2.1,1.2l0,0c0.1-0.1,0.3-0.1,0.4-0.1
				c0.3-0.1,0.7,0,1.1,0l4.1,1.5l47.1,17.3l0.7-1.1L255.5,272.4z"/>
		</g>
	</g>
</g>
<g id="Clouds">
	<g id="Clouds_5_">
		<g id="Cloud_5_">
			<path id="XMLID_1112_" class="st24" d="M145,102.1l-7.6,4.4c0-0.3,0.1-0.7,0.1-1v-2.2c0-3.9-2.8-5.5-6.2-3.6
				c-1.4,0.8-2.6,2.1-3.7,3.5c-0.6-4.9-4.4-6.8-9.1-4.1c-5.1,2.9-9.2,10.1-9.2,16v3.3c0,1.5,0.3,2.8,0.8,3.8l-6.3,3.7
				c-1.9,1.1-3.4,3.7-3.4,5.9c0,2.2,1.5,3.1,3.4,2L145,110c1.9-1.1,3.4-3.7,3.4-5.9C148.4,101.9,146.9,101,145,102.1z"/>
		</g>
		<g id="Cloud_4_">
			<path id="XMLID_1110_" class="st24" d="M108.1,77l-9.4,5.4c0-0.4,0.1-0.8,0.1-1.2v-2.7c0-4.8-3.4-6.8-7.6-4.4
				c-1.7,1-3.3,2.5-4.5,4.3c-0.7-6.1-5.5-8.3-11.2-5C69.2,77,64.1,85.8,64.1,93v4.1c0,1.9,0.3,3.5,1,4.7l-7.8,4.5
				c-2.3,1.3-4.2,4.6-4.2,7.3c0,2.7,1.9,3.8,4.2,2.4l50.8-29.3c2.3-1.3,4.2-4.6,4.2-7.3C112.3,76.7,110.5,75.6,108.1,77z"/>
		</g>
	</g>
</g>
<g id="Paper_Plane_1_">
	<g id="Paper_Plane">
		<polygon id="XMLID_1116_" class="st2" points="405,164.7 440.3,142.1 455.9,147.1 		"/>
		<polygon id="XMLID_1115_" class="st2" points="405,164.7 435.5,139.2 428.7,131.4 		"/>
		<polygon id="XMLID_1114_" class="st2" points="435.5,139.2 435.5,145.1 405,164.7 		"/>
		<polygon id="XMLID_1113_" class="st26" points="435.5,139.2 435.5,145.1 405,164.7 		"/>
		<g id="XMLID_1111_">
			<path class="st1" d="M440.6,138.7c-0.2,0-0.4-0.1-0.6-0.2c-0.3-0.3-0.3-0.8,0-1.1c1.1-1,2-2,2.9-3.2c0.3-0.3,0.7-0.4,1.1-0.1
				c0.3,0.3,0.4,0.7,0.1,1.1c-0.9,1.2-1.9,2.3-3.1,3.3C441,138.7,440.8,138.7,440.6,138.7z M446.3,131.3c-0.1,0-0.2,0-0.3-0.1
				c-0.4-0.2-0.5-0.6-0.3-1c0.9-1.7,1.5-3.6,2-5.5c0.1-0.4,0.5-0.7,0.9-0.6c0.4,0.1,0.7,0.5,0.6,0.9c-0.5,2-1.2,4-2.1,5.8
				C446.8,131.1,446.5,131.3,446.3,131.3z M449,120.7C449,120.7,449,120.7,449,120.7c-0.4,0-0.8-0.4-0.8-0.8c0-0.4,0-0.8,0-1.2
				c0-1.5-0.1-3.1-0.4-4.6c-0.1-0.4,0.2-0.8,0.6-0.9c0.4-0.1,0.8,0.2,0.9,0.6c0.3,1.6,0.4,3.2,0.4,4.9c0,0.4,0,0.9,0,1.3
				C449.7,120.4,449.4,120.7,449,120.7z M447.4,109.9c-0.3,0-0.6-0.2-0.7-0.5c-0.6-1.8-1.4-3.6-2.4-5.3c-0.2-0.4-0.1-0.8,0.3-1
				c0.4-0.2,0.8-0.1,1,0.3c1,1.8,1.9,3.7,2.5,5.6c0.1,0.4-0.1,0.8-0.5,1C447.5,109.9,447.5,109.9,447.4,109.9z M442.1,100.3
				c-0.2,0-0.4-0.1-0.6-0.3c-1.2-1.5-2.5-3-3.9-4.4c-0.3-0.3-0.3-0.8,0-1.1c0.3-0.3,0.8-0.3,1.1,0c1.5,1.4,2.9,3,4.1,4.5
				c0.3,0.3,0.2,0.8-0.1,1.1C442.4,100.2,442.3,100.3,442.1,100.3z M434.3,92.6c-0.2,0-0.3,0-0.5-0.2c-1.5-1.2-3.2-2.3-4.9-3.3
				c-0.4-0.2-0.5-0.7-0.3-1c0.2-0.4,0.7-0.5,1-0.3c1.8,1,3.5,2.2,5.1,3.4c0.3,0.2,0.4,0.7,0.1,1.1C434.7,92.5,434.5,92.6,434.3,92.6
				z M355.7,89.7c-0.3,0-0.5-0.1-0.7-0.4c-0.2-0.4-0.1-0.8,0.3-1c1.7-1,3.5-1.9,5.4-2.8c0.4-0.2,0.8,0,1,0.4c0.2,0.4,0,0.8-0.4,1
				c-1.8,0.8-3.6,1.8-5.3,2.8C356,89.7,355.8,89.7,355.7,89.7z M424.9,87c-0.1,0-0.2,0-0.3-0.1c-1.8-0.9-3.6-1.7-5.4-2.4
				c-0.4-0.1-0.6-0.6-0.4-1c0.1-0.4,0.6-0.6,1-0.4c1.9,0.7,3.7,1.5,5.6,2.4c0.4,0.2,0.5,0.6,0.3,1C425.4,86.8,425.1,87,424.9,87z
				 M365.6,84.9c-0.3,0-0.6-0.2-0.7-0.5c-0.2-0.4,0-0.8,0.4-1c1.9-0.7,3.8-1.4,5.7-2c0.4-0.1,0.8,0.1,0.9,0.5
				c0.1,0.4-0.1,0.8-0.5,0.9c-1.9,0.6-3.8,1.2-5.6,1.9C365.8,84.9,365.7,84.9,365.6,84.9z M414.6,82.9c-0.1,0-0.1,0-0.2,0
				c-1.9-0.6-3.8-1.1-5.7-1.5c-0.4-0.1-0.7-0.5-0.6-0.9c0.1-0.4,0.5-0.7,0.9-0.6c2,0.4,3.9,0.9,5.9,1.5c0.4,0.1,0.6,0.5,0.5,0.9
				C415.3,82.7,415,82.9,414.6,82.9z M376.1,81.7c-0.3,0-0.7-0.2-0.7-0.6c-0.1-0.4,0.2-0.8,0.6-0.9c2-0.5,4-0.8,6-1.1
				c0.4-0.1,0.8,0.2,0.9,0.6c0.1,0.4-0.2,0.8-0.6,0.9c-2,0.3-3.9,0.7-5.8,1.1C376.2,81.7,376.2,81.7,376.1,81.7z M403.9,80.5
				c0,0-0.1,0-0.1,0c-1.9-0.3-3.9-0.5-5.9-0.6c-0.4,0-0.7-0.4-0.7-0.8c0-0.4,0.4-0.7,0.8-0.7c2,0.1,4,0.3,6,0.6
				c0.4,0.1,0.7,0.4,0.6,0.9C404.6,80.3,404.3,80.5,403.9,80.5z M387,80c-0.4,0-0.7-0.3-0.7-0.7c0-0.4,0.3-0.8,0.7-0.8
				c2-0.2,4-0.2,6.1-0.3h0c0.4,0,0.7,0.3,0.8,0.7c0,0.4-0.3,0.8-0.7,0.8C391,79.8,389,79.8,387,80C387,80,387,80,387,80z"/>
		</g>
	</g>
</g>
</svg>
